HIERARCHY
ROOT Hips
{
  OFFSET -69.4423 88.0299 51.6846
  CHANNELS 6 Xposition Yposition Zposition Zrotation Xrotation Yrotation
  JOINT Spine
  {
    OFFSET 12.0259 -0.162853 1.93176e-005
    CHANNELS 3 Zrotation Xrotation Yrotation
    JOINT Spine1
    {
      OFFSET 15.3169 -0.0121909 0
      CHANNELS 3 Zrotation Xrotation Yrotation
      JOINT Spine2
      {
        OFFSET 15.3176 -0.0121922 0
        CHANNELS 3 Zrotation Xrotation Yrotation
        JOINT Neck
        {
          OFFSET 19.9142 1.56236 0
          CHANNELS 3 Zrotation Xrotation Yrotation
          JOINT Head
          {
            OFFSET 6.92646 0 0
            CHANNELS 3 Zrotation Xrotation Yrotation
            End Site
            {
              OFFSET 20.7666 0 0
            }
          }
          JOINT LeftShoulder
          {
            OFFSET -4.94072 -1.14703 8.14416
            CHANNELS 3 Zrotation Xrotation Yrotation
            JOINT LeftArm
            {
              OFFSET 14.108 0 -2.74767e-005
              CHANNELS 3 Zrotation Xrotation Yrotation
              JOINT LeftForeArm
              {
                OFFSET 28.5802 -0.0783412 -0.0284884
                CHANNELS 3 Zrotation Xrotation Yrotation
                JOINT LeftHand
                {
                  OFFSET 27.092 0 0
                  CHANNELS 3 Zrotation Xrotation Yrotation
                  End Site
                  {
                    OFFSET 9.55928 -0.186424 0.145352
                  }
                }
              }
            }
          }
          JOINT RightShoulder
          {
            OFFSET -7.15748 -1.33027 -6.24935
            CHANNELS 3 Zrotation Xrotation Yrotation
            JOINT RightArm
            {
              OFFSET 14.108 0 1.82997e-005
              CHANNELS 3 Zrotation Xrotation Yrotation
              JOINT RightForeArm
              {
                OFFSET 28.5802 -0.0707221 2.30684e-005
                CHANNELS 3 Zrotation Xrotation Yrotation
                JOINT RightHand
                {
                  OFFSET 27.092 0 -1.30073e-005
                  CHANNELS 3 Zrotation Xrotation Yrotation
                  End Site
                  {
                    OFFSET 9.55929 -0.186417 -0.145354
                  }
                }
              }
            }
          }
        }
      }
    }
  }
  JOINT LeftUpLeg
  {
    OFFSET 0.00499725 -0.534999 8.837
    CHANNELS 3 Zrotation Xrotation Yrotation
    JOINT LeftLeg
    {
      OFFSET 39.9035 -0.00124594 0.000252775
      CHANNELS 3 Zrotation Xrotation Yrotation
      JOINT LeftFoot
      {
        OFFSET 39.6689 0 0
        CHANNELS 3 Zrotation Xrotation Yrotation
        JOINT LeftToe
        {
          OFFSET 10.1624 13.6296 0
          CHANNELS 3 Zrotation Xrotation Yrotation
          End Site
          {
            OFFSET 8.38147 0 0
          }
        }
      }
    }
  }
  JOINT RightUpLeg
  {
    OFFSET 0.00499725 -0.535 -8.837
    CHANNELS 3 Zrotation Xrotation Yrotation
    JOINT RightLeg
    {
      OFFSET 39.9036 -0.000268477 0.000106433
      CHANNELS 3 Zrotation Xrotation Yrotation
      JOINT RightFoot
      {
        OFFSET 39.6689 1.17892e-005 0
        CHANNELS 3 Zrotation Xrotation Yrotation
        JOINT RightToe
        {
          OFFSET 10.1624 13.6296 0
          CHANNELS 3 Zrotation Xrotation Yrotation
          End Site
          {
            OFFSET 8.38147 0 0
          }
        }
      }
    }
  }
}
MOTION
Frames:	20
Frame Time:	0.0333333
-62.7321 88.2177 87.5395 104.085 80.5264 -10.2107 1.24729 0.534484 0.344838 2.49154 1.07678 0.678164 2.49153 1.07679 0.678144 -7.45313 1.66211 -11.3748 62.572 3.79966 3.92607 -173.833 1.41459 -95.3643 -16.8451 8.33697 86.8938 -27.5908 3.24569 -17.0614 31.0675 -88.0705 33.6047 -173.785 -0.197851 73.5186 -13.5434 -8.64509 -84.5828 -31.3756 -4.8227 18.5757 41.3333 89.4145 -41.3076 -10.9306 -1.9289 176.671 -18.9955 1.05017 -1.23383 -0.208883 15.5725 1.94217 90 -7.95139e-015 6.36111e-015 -19.3673 -1.54496 176.591 -49.2554 -0.347361 0.0678194 5.66111 2.81179 -0.698774 90 -7.95139e-015 -1.59028e-015 
-63.1231 88.2939 87.7108 106.052 82.7811 -12.7762 1.26534 0.382658 0.382919 2.52822 0.774169 0.757493 2.52821 0.774166 0.757473 -7.70353 1.59707 -11.4382 62.5612 3.83099 4.13284 -173.581 1.28505 -95.4017 -16.1114 8.32048 86.3496 -27.1429 3.1591 -16.8035 24.3475 -87.8198 26.9998 -173.558 -0.31427 73.4686 -14.9179 -8.33171 -85.4372 -32.4449 -5.12886 19.1295 126.185 89.5216 -126.194 -11.0561 -2.91093 177.307 -19.4574 1.05292 -1.22071 -0.191467 16.6236 2.06466 90 -5.56597e-015 -0 -18.6159 1.24328 177.572 -46.4984 -0.389346 0.0827731 6.02903 -0.179817 -0.977904 90 4.77083e-015 7.95139e-015 
-63.5266 88.2549 87.8363 109.107 84.7466 -16.0648 1.20919 0.310153 0.337595 2.41658 0.627847 0.668739 2.41657 0.627846 0.668729 -7.57319 1.43595 -11.5162 62.4587 3.84555 4.48804 -173.746 1.11794 -95.4687 -15.364 8.71546 86.019 -27.0566 3.14694 -16.7277 23.0374 -87.6809 25.7388 -173.734 -0.456888 73.4418 -16.428 -8.56538 -86.4026 -33.3659 -5.40424 19.6108 147.355 89.2869 -147.377 -11.3483 -3.59336 177.608 -20.2599 1.05446 -1.18721 0.199153 17.6301 2.0702 90 -3.97569e-015 -0 -17.5653 3.30898 178.199 -43.6217 -0.426387 0.115406 6.4115 -0.802291 -1.05461 90 -2.23633e-015 -1.25234e-014 
-64.0078 88.1644 87.8394 113.605 86.3513 -20.8356 1.22228 0.318808 0.298043 2.44295 0.64437 0.589389 2.44294 0.644364 0.589376 -7.71803 1.35352 -11.589 62.4267 3.95536 4.79403 -173.617 0.994635 -95.5256 -15.1102 8.70286 85.573 -26.8797 3.11297 -16.6201 32.8326 -88.2728 35.5683 -173.616 -0.594814 73.3871 -18.1273 -8.42763 -87.0643 -33.8428 -5.54816 19.8648 153.897 89.1017 -153.933 -11.9173 -4.64479 177.993 -21.3904 1.05429 -1.14901 0.34493 18.438 2.10618 90 -2.22639e-014 3.18055e-015 -16.4625 4.04893 178.793 -41.4565 -0.457908 0.146221 6.14153 -0.0156485 -0.977925 90 1.04362e-015 2.88238e-015 
-64.5824 88.1187 87.7027 125.673 87.4449 -33.3097 1.19991 0.42713 0.276007 2.39785 0.860435 0.544164 2.39784 0.860436 0.544149 -7.84105 1.22103 -11.7232 62.3519 4.04051 5.22665 -173.517 0.818853 -95.6621 -15.2741 8.68042 85.2772 -27.2004 3.17785 -16.7799 64.6888 -88.9331 67.4818 -173.523 -0.792282 73.2748 -19.3275 -8.02292 -87.5272 -33.7492 -5.51435 19.8208 152.905 89.1254 -152.924 -12.6784 -5.52224 178.598 -22.4105 1.04954 -1.12072 1.02639 18.8511 2.00499 90 7.15625e-015 9.54166e-015 -15.4969 3.27733 179.509 -40.179 -0.475153 0.1535 6.14752 0.664084 -0.927669 90 -2.6339e-015 -1.03368e-014 
-65.0482 88.1241 87.4414 148.308 88.2859 -56.3628 1.23486 0.567775 0.276722 2.46714 1.14186 0.541327 2.46713 1.14185 0.541315 -8.1371 1.25803 -11.554 62.5733 3.97392 5.0021 -173.219 0.849594 -95.5048 -14.684 8.23557 85.2486 -27.4486 3.25292 -16.9369 31.0525 -87.4937 33.5029 -173.222 -0.807453 73.4348 -19.9167 -7.47353 -87.6753 -33.4231 -5.39983 19.6469 52.4994 89.5358 -52.5038 -13.3277 -6.97875 179.003 -23.1185 1.0504 -1.11083 0.79709 18.8241 2.08966 90 0 -0 -14.7708 1.29825 -179.949 -38.396 -0.49739 0.200598 7.14181 2.04226 -0.930718 90 -3.18055e-015 -3.37934e-015 
-65.6738 88.0194 86.9272 -165.735 88.5462 -103.002 1.28749 0.739407 0.370054 2.57053 1.48742 0.723645 2.57052 1.48741 0.723626 -8.16973 1.30325 -11.5028 62.3726 4.12714 4.9259 -173.186 0.920486 -95.5057 -15.9875 8.23943 85.4815 -28.1613 3.37494 -17.3321 37.9303 -88.4252 40.5522 -173.185 -0.803026 73.4751 -20.3578 -7.08087 -87.5828 -33.1685 -5.31569 19.5284 33.6632 89.3794 -33.7014 -14.4867 -8.66112 179.683 -24.3596 1.0517 -1.07408 0.15843 18.8654 2.28707 90 -1.43125e-014 -1.90833e-014 -13.8201 -0.441131 -178.739 -36.7652 -0.527014 0.221888 7.18235 3.75892 -0.825696 90 -4.07509e-015 -4.37326e-015 
-66.2256 88.0188 86.3004 -146.232 88.0996 -122.906 1.36986 1.05131 0.395949 2.73313 2.11224 0.766984 2.73313 2.11224 0.766967 -8.28223 1.51274 -11.0747 62.1925 4.00645 4.05825 -173.038 1.21213 -95.157 -17.1766 8.07061 85.8188 -28.9033 3.52392 -17.7473 55.9193 -88.8373 58.5037 -173.028 -0.5574 73.8815 -21.0666 -6.99704 -87.4946 -33.2285 -5.33682 19.5644 55.4305 89.5668 -55.4663 -15.8122 -10.1748 179.988 -25.5029 1.05774 -1.06342 -0.098427 18.1097 2.30661 90 4.77083e-015 3.18055e-015 -13.9464 -1.08198 -177.947 -35.8154 -0.540926 0.231865 6.43121 4.43116 -0.674684 90 -6.75868e-015 -1.27222e-014 
-66.6977 88.0537 85.483 -131.24 87.0048 -137.895 1.41185 1.27328 0.333535 2.81731 2.55487 0.635967 2.8173 2.55486 0.635952 -8.36138 1.77354 -10.8165 62.1026 4.25998 3.445 -172.931 1.52055 -94.9882 -17.9294 8.16706 86.1426 -29.8728 3.73098 -18.2711 37.9606 -88.484 40.5318 -172.908 -0.2951 74.1451 -20.7265 -6.72627 -87.6014 -33.4838 -5.41888 19.6974 18.1903 88.8531 -18.2224 -17.3308 -11.7405 179.892 -25.6721 1.08264 -1.05885 -2.34959 18.2346 2.82591 90 8.74653e-015 6.36111e-015 -14.7617 -1.76484 -177.957 -35.7988 -0.54252 0.232693 6.27024 3.78306 -0.697898 90 -9.93923e-016 9.54166e-015 
-67.1158 88.0935 84.6052 -121.393 85.5374 -147.705 1.57019 1.39831 0.313067 3.13431 2.80504 0.583039 3.13431 2.80502 0.58303 -9.14557 2.16281 -10.6833 62.7232 4.54414 2.66596 -172.099 1.81445 -94.9581 -18.3167 7.72545 86.6803 -30.9224 3.97155 -18.8471 29.343 -88.1641 31.9319 -172.043 -0.0445223 74.206 -21.1762 -5.82016 -86.7047 -32.9038 -5.24598 19.4069 30.962 89.301 -31.0038 -18.7189 -12.8511 179.817 -26.0185 1.07063 -1.03023 -1.78198 18.5389 2.70633 90 -2.14687e-014 -1.27222e-014 -15.6698 -2.81976 -177.941 -35.8417 -0.539001 0.231946 5.76238 4.17422 -0.594555 90 -7.45443e-015 -1.07344e-014 
-67.4999 88.1384 83.7425 -116.226 84.1024 -152.951 1.66928 1.55495 0.302055 3.33218 3.11849 0.559115 3.33219 3.11848 0.559099 -8.94194 2.33752 -10.7033 62.0941 4.90378 2.40987 -172.27 2.02103 -95.0263 -19.0548 7.76501 87.1088 -31.5689 4.10926 -19.1944 29.8893 -88.214 32.4279 -172.191 0.148979 74.1823 -21.2102 -5.568 -86.1849 -32.8478 -5.22822 19.3728 84.1383 89.6343 -84.1814 -19.6046 -13.6582 -179.971 -26.4469 1.04483 -0.988202 -0.259518 19.6731 2.42307 90 -2.38542e-015 -1.59028e-014 -16.5084 -3.58878 -177.751 -35.8079 -0.532542 0.234702 5.08472 4.98904 -0.420012 90 3.97569e-016 3.97569e-015 
-67.6715 88.2612 83.0182 -110.717 82.8502 -157.869 1.79736 1.66506 0.171565 3.59204 3.33523 0.291115 3.59203 3.33522 0.291105 -8.94244 2.49013 -11.103 62.6521 5.63345 2.62918 -172.235 2.07898 -95.4258 -19.5379 7.86004 87.4728 -31.8293 4.16054 -19.3307 22.9751 -87.8136 25.5036 -172.129 0.230017 73.7719 -21.5197 -5.35192 -85.4215 -32.2966 -5.06412 19.0804 73.9694 89.6103 -73.9947 -19.2834 -14.1757 179.523 -27.0417 1.01288 -0.898997 1.6482 18.5971 1.83675 90 -7.95139e-016 6.36111e-015 -16.8751 -4.3497 -178.527 -35.9097 -0.516244 0.248265 4.7726 5.18161 -0.346829 90 3.47873e-015 7.95139e-016 
-67.9081 88.5359 82.1765 -107 81.6915 -161.643 1.88328 1.76379 0.169015 3.76405 3.53264 0.280253 3.76405 3.53264 0.280237 -8.59883 2.72565 -10.504 62.9915 5.50097 1.47436 -172.537 2.48396 -94.8596 -19.8568 8.1853 87.7045 -31.8385 4.15301 -19.3244 21.2443 -87.7739 23.8003 -172.402 0.673861 74.3319 -21.6225 -5.2778 -84.7681 -32.0782 -5.00279 18.96 45.9757 89.4647 -45.9879 -19.1593 -14.2639 179.629 -30.9371 0.985797 -0.829992 5.75919 13.1636 0.898677 90 -7.15625e-015 -9.54166e-015 -17.0815 -4.90416 -178.531 -35.2895 -0.508306 0.265226 3.83221 5.73971 -0.131079 90 3.67752e-015 2.98177e-015 
-67.9942 88.6706 81.1687 -103.079 79.8093 -165.179 1.90415 1.66751 0.11259 3.8158 3.33834 0.16979 3.81577 3.33834 0.169782 -8.17473 2.93348 -10.2634 63.4006 5.87003 0.934508 -172.94 2.77743 -94.6253 -19.8677 8.91637 88.0815 -31.5786 4.07944 -19.1682 18.3111 -87.3524 20.7943 -172.774 1.03139 74.558 -21.1791 -5.46054 -84.3038 -32.0059 -4.98384 18.9205 39.3942 89.3917 -39.4089 -19.122 -14.6011 179.148 -34.8721 1.00908 -0.693049 4.21366 10.9127 0.948395 90 -1.43125e-014 -1.27222e-014 -17.3694 -5.80025 -179.207 -34.9159 -0.493614 0.285298 3.04732 6.56511 0.126518 90 -1.49089e-014 -4.37326e-015 
-67.9479 88.9483 80.1943 -102.454 78.8514 -165.383 1.89764 1.72228 0.0494378 3.79642 3.44576 0.0419348 3.79641 3.44576 0.0419253 -8.21333 3.34138 -10.2426 63.8791 6.4743 0.253581 -172.842 3.14966 -94.6198 -19.3709 9.3884 88.457 -30.9147 3.92812 -18.8113 15.5402 -86.8587 18.0195 -172.658 1.4871 74.5198 -20.2861 -5.64542 -83.8134 -32.0749 -5.00845 18.9507 47.4927 89.4711 -47.5095 -18.5439 -14.6734 178.935 -38.6646 1.00423 -0.527535 3.47677 10.6565 0.913585 90 -3.97569e-015 -1.11319e-014 -17.8476 -6.41414 179.956 -34.4092 -0.477176 0.307232 2.10479 6.43691 0.299323 90 -3.77691e-015 3.37934e-015 
-67.9606 89.1957 79.2229 -101.567 78.0854 -166.25 1.89027 1.85014 0.0229332 3.78277 3.70056 -0.0151141 3.78276 3.70055 -0.0151244 -8.06157 3.51224 -10.071 63.9103 6.78027 -0.0958425 -172.972 3.32603 -94.429 -18.9376 10.1108 88.5318 -30.1805 3.7373 -18.3935 12.6553 -86.5498 15.0476 -172.769 1.76652 74.6591 -18.6934 -5.49655 -83.6286 -31.9118 -4.96728 18.862 81.4813 89.5977 -81.4979 -17.1963 -14.8121 179.482 -41.7594 0.990824 -0.369875 2.35246 12.4596 1.05169 90 8.74653e-015 1.59028e-015 -17.869 -7.02075 179.615 -33.2252 -0.470726 0.351723 0.713126 6.46925 0.568315 90 -1.39149e-014 -1.39149e-015 
-67.8512 89.4161 78.1299 -100.936 77.3659 -166.728 1.85306 1.91048 0.00148335 3.70916 3.8205 -0.0587875 3.70915 3.8205 -0.058794 -7.87065 3.83522 -10.0244 63.6975 7.28575 -0.624007 -173.108 3.64746 -94.3786 -18.1752 10.7812 88.8155 -29.4482 3.58717 -17.9924 9.68456 -85.6442 12.1399 -172.897 2.18828 74.6656 -17.6883 -5.7373 -83.4552 -31.8369 -4.95302 18.8233 105.726 89.5734 -105.743 -15.4062 -14.8973 -179.985 -43.675 1.01805 -0.284503 0.365656 14.3741 1.41853 90 -1.11319e-014 -1.11319e-014 -18.2465 -7.16537 179.14 -32.3773 -0.438288 0.372835 -0.623471 6.57811 0.842152 90 7.8023e-015 5.76476e-015 
-67.7948 89.6148 76.9678 -100.177 76.6228 -167.788 1.82211 1.93962 0.0516117 3.63946 3.88049 0.0417349 3.63947 3.88046 0.0417174 -7.85341 4.09997 -9.51068 63.8998 7.26789 -1.56975 -173.114 3.96432 -93.8671 -17.5263 11.517 88.8569 -28.5394 3.40406 -17.4866 8.7396 -85.0221 11.2507 -172.882 2.61436 75.1127 -16.8297 -5.78201 -83.2051 -31.5944 -4.88095 18.6903 87.2886 89.5908 -87.3068 -12.9126 -14.896 -178.642 -44.6752 1.03155 -0.231445 -0.568178 16.2281 1.73536 90 1.59028e-015 -3.18055e-015 -18.6813 -7.427 179.088 -31.7081 -0.414004 0.402503 -1.50997 6.57874 1.007 90 2.73329e-015 -7.95139e-015 
-67.5061 89.704 75.7332 -99.6046 76.4038 -168.067 1.82434 1.98506 -0.00259122 3.65209 3.96946 -0.0683793 3.65208 3.96946 -0.0683804 -8.04373 4.40544 -9.63274 64.4363 7.80014 -1.93287 -172.868 4.17445 -93.9738 -16.6211 11.9766 89.0165 -27.5364 3.19434 -16.9413 10.287 -85.3045 12.6872 -172.624 2.92926 74.911 -16.4326 -5.67918 -82.774 -31.1518 -4.75062 18.4533 59.4767 89.5275 -59.496 -10.1793 -14.6067 -178.101 -44.2421 1.09832 -0.234508 -4.16216 18.7707 2.81464 90 -7.95139e-015 -9.54166e-015 -19.2267 -7.45843 178.25 -30.9431 -0.380774 0.442975 -2.79511 5.98895 1.12103 90 7.44821e-015 -3.47873e-016 
-67.2246 89.5972 74.2953 -99.4124 76.3123 -168.079 1.78723 2.04174 -0.043401 3.57943 4.08171 -0.150544 3.57942 4.08171 -0.150561 -7.90996 4.5971 -9.42256 64.5319 7.91381 -2.50387 -172.986 4.39487 -93.7267 -15.7429 12.3598 89.1783 -26.4835 2.99185 -16.3751 10.057 -84.9154 12.4264 -172.726 3.23955 75.0706 -16.778 -5.91438 -82.3763 -30.8079 -4.65483 18.2765 129.259 89.4735 -129.275 -7.29123 -13.8087 -177.328 -42.7231 1.17186 -0.276806 -7.23298 22.1997 4.22696 90 1.27222e-014 6.36111e-015 -20.2561 -7.06498 177.588 -31.0644 -0.347433 0.478613 -3.18141 5.79844 1.14592 90 -1.88721e-014 -1.88845e-014 
